<svg version="1.1" viewBox="0.0 0.0 960.0 288.0" fill="none" stroke="none" stroke-linecap="square" stroke-miterlimit="10" xmlns:xlink="http://www.w3.org/1999/xlink" xmlns="http://www.w3.org/2000/svg"><clipPath id="p.0"><path d="m0 0l960.0 0l0 288.0l-960.0 0l0 -288.0z" clip-rule="nonzero"/></clipPath><g clip-path="url(#p.0)"><path fill="#2c2c30" d="m0 0l960.0 0l0 288.0l-960.0 0z" fill-rule="evenodd"/><path fill="#000000" fill-opacity="0.0" d="m36.66142 40.14698l886.6771 0l0 107.40157l-886.6771 0z" fill-rule="evenodd"/><path fill="#ffffff" d="m281.1607 108.7301l-8.21875 8.5625l0 22.734375l-8.875 0l0 -67.296875l8.875 0l0 33.28125l29.90622 -33.28125l10.71875 0l-26.484344 29.71875l28.56247 37.578125l-10.625 0l-23.859344 -31.296875zm71.7825 31.296875q-0.734375 -1.484375 -1.203125 -5.265625q-5.953125 6.1875 -14.234375 6.1875q-7.390625 0 -12.140625 -4.171875q-4.734375 -4.1875 -4.734375 -10.609375q0 -7.8125 5.9375 -12.125q5.953125 -4.328125 16.71875 -4.328125l8.3125 0l0 -3.9375q0 -4.484375 -2.6875 -7.140625q-2.671875 -2.65625 -7.890625 -2.65625q-4.578125 0 -7.671875 2.3125q-3.09375 2.3125 -3.09375 5.59375l-8.609375 0q0 -3.75 2.65625 -7.234375q2.671875 -3.484375 7.21875 -5.515625q4.546875 -2.046875 10.0 -2.046875q8.65625 0 13.546875 4.328125q4.90625 4.3125 5.09375 11.90625l0 23.015625q0 6.875 1.75 10.953125l0 0.734375l-8.96875 0zm-14.1875 -6.515625q4.015625 0 7.625 -2.078125q3.609375 -2.078125 5.21875 -5.40625l0 -10.265625l-6.703125 0q-15.703125 0 -15.703125 9.203125q0 4.015625 2.671875 6.28125q2.6875 2.265625 6.890625 2.265625zm58.97223 -35.828125q-1.9375 -0.3125 -4.203125 -0.3125q-8.40625 0 -11.421875 7.15625l0 35.5l-8.546875 0l0 -50.015625l8.328125 0l0.125 5.78125q4.21875 -6.703125 11.9375 -6.703125q2.484375 0 3.78125 0.65625l0 7.9375zm17.154663 42.34375l-8.5625 0l0 -71.0l8.5625 0l0 71.0zm58.278748 -30.0q-11.421875 -3.28125 -16.625 -8.0625q-5.1875 -4.78125 -5.1875 -11.8125q0 -7.9375 6.34375 -13.140625q6.359375 -5.203125 16.53125 -5.203125q6.9375 0 12.359375 2.6875q5.4375 2.671875 8.40625 7.390625q2.984375 4.71875 2.984375 10.296875l-8.921875 0q0 -6.09375 -3.890625 -9.578125q-3.875 -3.5 -10.9375 -3.5q-6.5625 0 -10.234375 2.890625q-3.671875 2.890625 -3.671875 8.015625q0 4.125 3.484375 6.96875q3.484375 2.84375 11.875 5.203125q8.390625 2.34375 13.125 5.1875q4.734375 2.84375 7.015625 6.640625q2.296875 3.78125 2.296875 8.921875q0 8.171875 -6.375 13.09375q-6.375 4.921875 -17.046875 4.921875q-6.9375 0 -12.953125 -2.65625q-6.0 -2.65625 -9.265625 -7.28125q-3.25 -4.625 -3.25 -10.484375l8.921875 0q0 6.09375 4.5 9.640625q4.5 3.53125 12.046875 3.53125q7.015625 0 10.75 -2.859375q3.75 -2.875 3.75 -7.8125q0 -4.953125 -3.46875 -7.65625q-3.453125 -2.703125 -12.5625 -5.34375zm55.7341 30.921875q-10.15625 0 -16.546875 -6.671875q-6.3750305 -6.6875 -6.3750305 -17.875l0 -1.5625q0 -7.4375 2.84375 -13.28125q2.84375 -5.859375 7.9531555 -9.15625q5.109375 -3.3125 11.0625 -3.3125q9.75 0 15.15625 6.4375q5.421875 6.421875 5.421875 18.390625l0 3.546875l-33.890625 0q0.1875 7.40625 4.328125 11.96875q4.140625 4.546875 10.515625 4.546875q4.53125 0 7.671875 -1.84375q3.140625 -1.859375 5.5 -4.90625l5.21875 4.0625q-6.28125 9.65625 -18.859375 9.65625zm-1.0625 -44.828125q-5.171875 0 -8.6875 3.765625q-3.515625 3.765625 -4.34375 10.5625l25.046875 0l0 -0.65625q-0.359375 -6.515625 -3.515625 -10.09375q-3.140625 -3.578125 -8.5 -3.578125zm50.52246 37.859375q4.578125 0 8.0 -2.765625q3.421875 -2.78125 3.78125 -6.953125l8.09375 0q-0.234375 4.296875 -2.96875 8.1875q-2.71875 3.875 -7.28125 6.1875q-4.546875 2.3125 -9.625 2.3125q-10.21875 0 -16.25 -6.8125q-6.03125 -6.8125 -6.03125 -18.65625l0 -1.421875q0 -7.3125 2.671875 -12.984375q2.6875 -5.6875 7.703125 -8.828125q5.015625 -3.15625 11.859375 -3.15625q8.40625 0 13.96875 5.046875q5.578125 5.03125 5.953125 13.078125l-8.09375 0q-0.359375 -4.859375 -3.671875 -7.96875q-3.296875 -3.125 -8.15625 -3.125q-6.515625 0 -10.109375 4.6875q-3.578125 4.6875 -3.578125 13.5625l0 1.625q0 8.640625 3.5625 13.3125q3.5625 4.671875 10.171875 4.671875zm50.23413 6.96875q-10.15625 0 -16.546875 -6.671875q-6.375 -6.6875 -6.375 -17.875l0 -1.5625q0 -7.4375 2.84375 -13.28125q2.84375 -5.859375 7.953125 -9.15625q5.109375 -3.3125 11.0625 -3.3125q9.75 0 15.15625 6.4375q5.421875 6.421875 5.421875 18.390625l0 3.546875l-33.890625 0q0.1875 7.40625 4.328125 11.96875q4.140625 4.546875 10.515625 4.546875q4.53125 0 7.671875 -1.84375q3.140625 -1.859375 5.5 -4.90625l5.21875 4.0625q-6.28125 9.65625 -18.859375 9.65625zm-1.0625 -44.828125q-5.171875 0 -8.6875 3.765625q-3.515625 3.765625 -4.34375 10.5625l25.046875 0l0 -0.65625q-0.359375 -6.515625 -3.515625 -10.09375q-3.140625 -3.578125 -8.5 -3.578125zm38.55371 -6.109375l0.28125 6.296875q5.71875 -7.21875 14.96875 -7.21875q15.859375 0 15.984375 17.890625l0 33.046875l-8.546875 0l0 -33.09375q-0.046875 -5.40625 -2.46875 -7.984375q-2.421875 -2.59375 -7.5625 -2.59375q-4.15625 0 -7.296875 2.21875q-3.140625 2.21875 -4.90625 5.8125l0 35.640625l-8.546875 0l0 -50.015625l8.09375 0z" fill-rule="nonzero"/><path fill="#000000" fill-opacity="0.0" d="m192.59842 183.40683l574.8031 0l0 48.15747l-574.8031 0z" fill-rule="evenodd"/><path fill="#659dbd" d="m323.79227 199.87807l0 2.421875l-10.546875 0l0 7.6875l9.015625 0l0 2.421875l-9.015625 0l0 9.4375l-2.984375 0l0 -21.96875l13.53125 0zm4.822113 6.4375l0 9.90625q0 1.765625 0.8125 2.734375q0.8125 0.953125 2.453125 0.953125q1.203125 0 2.25 -0.5625q1.0625 -0.5625 1.953125 -1.578125l0 -11.453125l2.734375 0l0 15.53125l-1.625 0q-0.59375 0 -0.734375 -0.5625l-0.21875 -1.671875q-1.015625 1.109375 -2.28125 1.796875q-1.25 0.6875 -2.875 0.6875q-1.265625 0 -2.25 -0.421875q-0.96875 -0.421875 -1.625 -1.1875q-0.65625 -0.765625 -0.984375 -1.859375q-0.328125 -1.09375 -0.328125 -2.40625l0 -9.90625l2.71875 0zm17.716797 -7.046875l0 22.578125l-2.71875 0l0 -22.578125l2.71875 0zm7.8480225 0l0 22.578125l-2.71875 0l0 -22.578125l2.71875 0zm22.42096 4.046875q-0.140625 0.234375 -0.296875 0.34375q-0.15625 0.109375 -0.390625 0.109375q-0.265625 0 -0.609375 -0.25q-0.34375 -0.265625 -0.875 -0.578125q-0.53125 -0.3125 -1.28125 -0.578125q-0.734375 -0.265625 -1.796875 -0.265625q-1.0 0 -1.765625 0.28125q-0.765625 0.265625 -1.28125 0.734375q-0.5 0.453125 -0.765625 1.078125q-0.265625 0.609375 -0.265625 1.328125q0 0.921875 0.453125 1.53125q0.453125 0.609375 1.1875 1.046875q0.75 0.421875 1.6875 0.734375q0.953125 0.3125 1.9375 0.65625q1.0 0.328125 1.9375 0.75q0.9375 0.421875 1.671875 1.0625q0.75 0.640625 1.203125 1.578125q0.453125 0.9375 0.453125 2.296875q0 1.4375 -0.5 2.703125q-0.484375 1.265625 -1.421875 2.203125q-0.9375 0.9375 -2.3125 1.484375q-1.375 0.53125 -3.125 0.53125q-2.125 0 -3.890625 -0.765625q-1.75 -0.78125 -2.984375 -2.109375l0.859375 -1.40625q0.125 -0.171875 0.296875 -0.28125q0.171875 -0.125 0.390625 -0.125q0.328125 0 0.734375 0.359375q0.421875 0.34375 1.03125 0.765625q0.625 0.40625 1.5 0.75q0.890625 0.34375 2.15625 0.34375q1.0625 0 1.890625 -0.296875q0.828125 -0.296875 1.390625 -0.8125q0.578125 -0.53125 0.890625 -1.265625q0.3125 -0.734375 0.3125 -1.640625q0 -1.0 -0.453125 -1.625q-0.453125 -0.640625 -1.1875 -1.0625q-0.734375 -0.4375 -1.6875 -0.734375q-0.9375 -0.3125 -1.9375 -0.625q-0.984375 -0.3125 -1.921875 -0.71875q-0.9375 -0.421875 -1.671875 -1.078125q-0.734375 -0.65625 -1.1875 -1.640625q-0.453125 -1.0 -0.453125 -2.453125q0 -1.171875 0.453125 -2.25q0.453125 -1.09375 1.296875 -1.9375q0.859375 -0.84375 2.125 -1.34375q1.265625 -0.5 2.90625 -0.5q1.84375 0 3.359375 0.578125q1.515625 0.578125 2.65625 1.6875l-0.71875 1.40625zm9.263489 18.78125q-1.828125 0 -2.828125 -1.03125q-0.984375 -1.03125 -0.984375 -2.953125l0 -9.515625l-1.875 0q-0.234375 0 -0.40625 -0.140625q-0.171875 -0.140625 -0.171875 -0.453125l0 -1.078125l2.546875 -0.328125l0.625 -4.796875q0.03125 -0.234375 0.203125 -0.375q0.171875 -0.15625 0.421875 -0.15625l1.390625 0l0 5.359375l4.4375 0l0 1.96875l-4.4375 0l0 9.328125q0 0.984375 0.46875 1.453125q0.484375 0.46875 1.234375 0.46875q0.421875 0 0.734375 -0.109375q0.3125 -0.109375 0.546875 -0.25q0.234375 -0.140625 0.390625 -0.25q0.15625 -0.125 0.28125 -0.125q0.21875 0 0.390625 0.265625l0.796875 1.296875q-0.703125 0.671875 -1.703125 1.046875q-1.0 0.375 -2.0625 0.375zm18.13794 -0.25l-1.203125 0q-0.40625 0 -0.65625 -0.125q-0.234375 -0.125 -0.3125 -0.515625l-0.3125 -1.4375q-0.609375 0.546875 -1.203125 0.984375q-0.578125 0.4375 -1.21875 0.734375q-0.640625 0.296875 -1.375 0.453125q-0.71875 0.15625 -1.609375 0.15625q-0.90625 0 -1.703125 -0.25q-0.78125 -0.265625 -1.375 -0.765625q-0.578125 -0.5 -0.921875 -1.28125q-0.34375 -0.78125 -0.34375 -1.828125q0 -0.921875 0.5 -1.765625q0.515625 -0.859375 1.640625 -1.515625q1.125 -0.65625 2.953125 -1.078125q1.828125 -0.421875 4.453125 -0.484375l0 -1.21875q0 -1.796875 -0.78125 -2.71875q-0.765625 -0.9375 -2.28125 -0.9375q-1.0 0 -1.6875 0.25q-0.671875 0.25 -1.171875 0.5625q-0.5 0.3125 -0.859375 0.578125q-0.359375 0.25 -0.703125 0.25q-0.28125 0 -0.484375 -0.140625q-0.203125 -0.15625 -0.328125 -0.375l-0.5 -0.859375q1.296875 -1.25 2.78125 -1.859375q1.484375 -0.609375 3.296875 -0.609375q1.296875 0 2.3125 0.4375q1.015625 0.421875 1.703125 1.1875q0.6875 0.765625 1.03125 1.859375q0.359375 1.078125 0.359375 2.375l0 9.9375zm-7.078125 -1.671875q0.71875 0 1.3125 -0.140625q0.59375 -0.15625 1.125 -0.421875q0.53125 -0.265625 1.015625 -0.640625q0.484375 -0.390625 0.9375 -0.875l0 -3.234375q-1.875 0.0625 -3.203125 0.296875q-1.3125 0.234375 -2.140625 0.625q-0.828125 0.375 -1.203125 0.90625q-0.375 0.515625 -0.375 1.15625q0 0.609375 0.203125 1.0625q0.203125 0.4375 0.53125 0.71875q0.34375 0.28125 0.796875 0.421875q0.46875 0.125 1.0 0.125zm21.80838 -11.09375q-0.125 0.171875 -0.25 0.265625q-0.109375 0.078125 -0.34375 0.078125q-0.234375 0 -0.5 -0.1875q-0.265625 -0.1875 -0.6875 -0.421875q-0.40625 -0.234375 -1.0 -0.421875q-0.59375 -0.1875 -1.453125 -0.1875q-1.125 0 -2.0 0.40625q-0.875 0.40625 -1.46875 1.171875q-0.59375 0.765625 -0.890625 1.859375q-0.296875 1.078125 -0.296875 2.4375q0 1.40625 0.3125 2.5q0.328125 1.09375 0.90625 1.84375q0.59375 0.734375 1.421875 1.125q0.84375 0.390625 1.890625 0.390625q0.984375 0 1.625 -0.234375q0.65625 -0.234375 1.078125 -0.515625q0.4375 -0.296875 0.703125 -0.53125q0.28125 -0.25 0.5625 -0.25q0.34375 0 0.515625 0.265625l0.765625 1.0q-1.015625 1.234375 -2.53125 1.8125q-1.515625 0.578125 -3.203125 0.578125q-1.453125 0 -2.703125 -0.53125q-1.25 -0.546875 -2.171875 -1.5625q-0.921875 -1.015625 -1.453125 -2.5q-0.515625 -1.5 -0.515625 -3.390625q0 -1.734375 0.46875 -3.203125q0.484375 -1.484375 1.40625 -2.546875q0.9375 -1.0625 2.296875 -1.65625q1.375 -0.59375 3.140625 -0.59375q1.625 0 2.875 0.53125q1.25 0.515625 2.21875 1.484375l-0.71875 0.984375zm6.5665283 -9.8125l0 13.296875l0.703125 0q0.296875 0 0.5 -0.078125q0.203125 -0.09375 0.453125 -0.359375l4.90625 -5.25q0.21875 -0.25 0.453125 -0.40625q0.234375 -0.15625 0.609375 -0.15625l2.484375 0l-5.71875 6.09375q-0.203125 0.25 -0.421875 0.453125q-0.203125 0.203125 -0.46875 0.359375q0.28125 0.171875 0.5 0.421875q0.21875 0.234375 0.421875 0.53125l6.078125 7.671875l-2.453125 0q-0.34375 0 -0.578125 -0.125q-0.234375 -0.140625 -0.453125 -0.40625l-5.109375 -6.359375q-0.21875 -0.328125 -0.453125 -0.421875q-0.234375 -0.109375 -0.6875 -0.109375l-0.765625 0l0 7.421875l-2.75 0l0 -22.578125l2.75 0zm17.121216 0.609375l2.46875 0q0.390625 0 0.65625 0.203125q0.265625 0.203125 0.34375 0.5l4.546875 15.265625q0.125 0.421875 0.21875 0.90625q0.09375 0.46875 0.1875 0.984375q0.109375 -0.515625 0.21875 -1.0q0.109375 -0.484375 0.25 -0.890625l5.15625 -15.265625q0.09375 -0.25 0.359375 -0.46875q0.28125 -0.234375 0.65625 -0.234375l0.859375 0q0.40625 0 0.65625 0.203125q0.25 0.203125 0.359375 0.5l5.125 15.265625q0.28125 0.796875 0.5 1.828125q0.09375 -0.5 0.15625 -0.953125q0.078125 -0.46875 0.203125 -0.875l4.5625 -15.265625q0.078125 -0.265625 0.34375 -0.484375q0.265625 -0.21875 0.640625 -0.21875l2.328125 0l-6.859375 21.96875l-2.671875 0l-5.5625 -16.75q-0.171875 -0.484375 -0.296875 -1.109375q-0.078125 0.3125 -0.15625 0.59375q-0.0625 0.28125 -0.140625 0.515625l-5.59375 16.75l-2.671875 0l-6.84375 -21.96875zm38.920013 6.203125q1.390625 0 2.5625 0.46875q1.1875 0.453125 2.046875 1.34375q0.859375 0.875 1.34375 2.171875q0.484375 1.296875 0.484375 2.953125q0 0.640625 -0.140625 0.859375q-0.140625 0.21875 -0.53125 0.21875l-10.328125 0q0.03125 1.46875 0.390625 2.5625q0.375 1.078125 1.015625 1.8125q0.65625 0.71875 1.546875 1.078125q0.890625 0.359375 1.984375 0.359375q1.03125 0 1.765625 -0.234375q0.75 -0.234375 1.28125 -0.5q0.546875 -0.28125 0.90625 -0.515625q0.359375 -0.25 0.609375 -0.25q0.34375 0 0.53125 0.265625l0.765625 1.0q-0.5 0.609375 -1.21875 1.0625q-0.703125 0.453125 -1.515625 0.75q-0.796875 0.28125 -1.65625 0.421875q-0.859375 0.15625 -1.703125 0.15625q-1.609375 0 -2.96875 -0.546875q-1.34375 -0.546875 -2.34375 -1.59375q-0.984375 -1.046875 -1.53125 -2.59375q-0.546875 -1.546875 -0.546875 -3.5625q0 -1.625 0.484375 -3.03125q0.5 -1.40625 1.4375 -2.4375q0.9375 -1.046875 2.28125 -1.625q1.359375 -0.59375 3.046875 -0.59375zm0.0625 2.0q-1.984375 0 -3.125 1.140625q-1.125 1.140625 -1.40625 3.171875l8.453125 0q0 -0.953125 -0.265625 -1.734375q-0.265625 -0.796875 -0.765625 -1.375q-0.5 -0.578125 -1.234375 -0.890625q-0.734375 -0.3125 -1.65625 -0.3125zm9.938934 13.765625l0 -22.578125l2.75 0l0 9.28125q0.96875 -1.109375 2.203125 -1.78125q1.25 -0.6875 2.859375 -0.6875q1.359375 0 2.4375 0.5q1.09375 0.5 1.859375 1.515625q0.765625 1.0 1.171875 2.484375q0.421875 1.46875 0.421875 3.40625q0 1.71875 -0.46875 3.203125q-0.453125 1.46875 -1.328125 2.546875q-0.859375 1.078125 -2.109375 1.703125q-1.234375 0.625 -2.8125 0.625q-1.5 0 -2.546875 -0.578125q-1.046875 -0.59375 -1.828125 -1.640625l-0.140625 1.421875q-0.125 0.578125 -0.703125 0.578125l-1.765625 0zm6.9375 -13.59375q-1.34375 0 -2.34375 0.609375q-1.0 0.609375 -1.84375 1.734375l0 7.515625q0.734375 1.0 1.625 1.421875q0.90625 0.40625 2.0 0.40625q2.1875 0 3.34375 -1.546875q1.171875 -1.546875 1.171875 -4.40625q0 -1.515625 -0.28125 -2.609375q-0.265625 -1.09375 -0.765625 -1.78125q-0.5 -0.703125 -1.25 -1.015625q-0.734375 -0.328125 -1.65625 -0.328125zm35.49106 2.625q0 2.46875 -0.78125 4.5q-0.78125 2.015625 -2.203125 3.453125q-1.421875 1.4375 -3.421875 2.234375q-1.984375 0.78125 -4.40625 0.78125l-8.21875 0l0 -21.96875l8.21875 0q2.421875 0 4.40625 0.796875q2.0 0.78125 3.421875 2.234375q1.421875 1.453125 2.203125 3.484375q0.78125 2.015625 0.78125 4.484375zm-3.046875 0q0 -2.03125 -0.5625 -3.625q-0.546875 -1.59375 -1.5625 -2.6875q-1.0 -1.109375 -2.453125 -1.6875q-1.4375 -0.59375 -3.1875 -0.59375l-5.234375 0l0 17.15625l5.234375 0q1.75 0 3.1875 -0.578125q1.453125 -0.59375 2.453125 -1.6875q1.015625 -1.09375 1.5625 -2.6875q0.5625 -1.59375 0.5625 -3.609375zm12.8186035 -4.796875q1.390625 0 2.5625 0.46875q1.1875 0.453125 2.046875 1.34375q0.859375 0.875 1.34375 2.171875q0.484375 1.296875 0.484375 2.953125q0 0.640625 -0.140625 0.859375q-0.140625 0.21875 -0.53125 0.21875l-10.328125 0q0.03125 1.46875 0.390625 2.5625q0.375 1.078125 1.015625 1.8125q0.65625 0.71875 1.546875 1.078125q0.890625 0.359375 1.984375 0.359375q1.03125 0 1.765625 -0.234375q0.75 -0.234375 1.28125 -0.5q0.546875 -0.28125 0.90625 -0.515625q0.359375 -0.25 0.609375 -0.25q0.34375 0 0.53125 0.265625l0.765625 1.0q-0.5 0.609375 -1.21875 1.0625q-0.703125 0.453125 -1.515625 0.75q-0.796875 0.28125 -1.65625 0.421875q-0.859375 0.15625 -1.703125 0.15625q-1.609375 0 -2.96875 -0.546875q-1.34375 -0.546875 -2.34375 -1.59375q-0.984375 -1.046875 -1.53125 -2.59375q-0.546875 -1.546875 -0.546875 -3.5625q0 -1.625 0.484375 -3.03125q0.5 -1.40625 1.4375 -2.4375q0.9375 -1.046875 2.28125 -1.625q1.359375 -0.59375 3.046875 -0.59375zm0.0625 2.0q-1.984375 0 -3.125 1.140625q-1.125 1.140625 -1.40625 3.171875l8.453125 0q0 -0.953125 -0.265625 -1.734375q-0.265625 -0.796875 -0.765625 -1.375q-0.5 -0.578125 -1.234375 -0.890625q-0.734375 -0.3125 -1.65625 -0.3125zm7.493408 -1.765625l2.234375 0q0.3125 0 0.53125 0.171875q0.21875 0.171875 0.3125 0.40625l3.9375 9.984375q0.21875 0.546875 0.328125 1.109375q0.125 0.546875 0.234375 1.078125q0.125 -0.53125 0.265625 -1.078125q0.140625 -0.5625 0.34375 -1.109375l4.0 -9.984375q0.078125 -0.25 0.28125 -0.40625q0.21875 -0.171875 0.53125 -0.171875l2.125 0l-6.328125 15.53125l-2.46875 0l-6.328125 -15.53125zm23.406738 -0.234375q1.390625 0 2.5625 0.46875q1.1875 0.453125 2.046875 1.34375q0.859375 0.875 1.34375 2.171875q0.484375 1.296875 0.484375 2.953125q0 0.640625 -0.140625 0.859375q-0.140625 0.21875 -0.53125 0.21875l-10.328125 0q0.03125 1.46875 0.390625 2.5625q0.375 1.078125 1.015625 1.8125q0.65625 0.71875 1.546875 1.078125q0.890625 0.359375 1.984375 0.359375q1.03125 0 1.765625 -0.234375q0.75 -0.234375 1.28125 -0.5q0.546875 -0.28125 0.90625 -0.515625q0.359375 -0.25 0.609375 -0.25q0.34375 0 0.53125 0.265625l0.765625 1.0q-0.5 0.609375 -1.21875 1.0625q-0.703125 0.453125 -1.515625 0.75q-0.796875 0.28125 -1.65625 0.421875q-0.859375 0.15625 -1.703125 0.15625q-1.609375 0 -2.96875 -0.546875q-1.34375 -0.546875 -2.34375 -1.59375q-0.984375 -1.046875 -1.53125 -2.59375q-0.546875 -1.546875 -0.546875 -3.5625q0 -1.625 0.484375 -3.03125q0.5 -1.40625 1.4375 -2.4375q0.9375 -1.046875 2.28125 -1.625q1.359375 -0.59375 3.046875 -0.59375zm0.0625 2.0q-1.984375 0 -3.125 1.140625q-1.125 1.140625 -1.40625 3.171875l8.453125 0q0 -0.953125 -0.265625 -1.734375q-0.265625 -0.796875 -0.765625 -1.375q-0.5 -0.578125 -1.234375 -0.890625q-0.734375 -0.3125 -1.65625 -0.3125zm12.876404 -8.8125l0 22.578125l-2.71875 0l0 -22.578125l2.71875 0zm11.098022 6.8125q1.703125 0 3.078125 0.5625q1.375 0.5625 2.328125 1.609375q0.96875 1.046875 1.46875 2.53125q0.515625 1.46875 0.515625 3.296875q0 1.828125 -0.515625 3.3125q-0.5 1.46875 -1.46875 2.515625q-0.953125 1.03125 -2.328125 1.59375q-1.375 0.5625 -3.078125 0.5625q-1.6875 0 -3.0625 -0.5625q-1.375 -0.5625 -2.34375 -1.59375q-0.96875 -1.046875 -1.484375 -2.515625q-0.515625 -1.484375 -0.515625 -3.3125q0 -1.828125 0.515625 -3.296875q0.515625 -1.484375 1.484375 -2.53125q0.96875 -1.046875 2.34375 -1.609375q1.375 -0.5625 3.0625 -0.5625zm0 13.84375q2.3125 0 3.4375 -1.53125q1.140625 -1.546875 1.140625 -4.296875q0 -2.78125 -1.140625 -4.328125q-1.125 -1.546875 -3.4375 -1.546875q-1.15625 0 -2.015625 0.40625q-0.859375 0.390625 -1.4375 1.140625q-0.578125 0.75 -0.859375 1.84375q-0.28125 1.09375 -0.28125 2.484375q0 1.375 0.28125 2.46875q0.28125 1.078125 0.859375 1.828125q0.578125 0.734375 1.4375 1.140625q0.859375 0.390625 2.015625 0.390625zm10.763672 7.171875l0 -20.78125l1.625 0q0.578125 0 0.734375 0.578125l0.234375 1.828125q1.0 -1.203125 2.28125 -1.9375q1.28125 -0.734375 2.953125 -0.734375q1.328125 0 2.40625 0.515625q1.09375 0.5 1.859375 1.515625q0.765625 1.0 1.171875 2.484375q0.421875 1.484375 0.421875 3.421875q0 1.71875 -0.46875 3.203125q-0.453125 1.46875 -1.3125 2.546875q-0.84375 1.078125 -2.09375 1.703125q-1.25 0.625 -2.8125 0.625q-1.453125 0 -2.46875 -0.46875q-1.015625 -0.484375 -1.796875 -1.359375l0 6.859375l-2.734375 0zm6.921875 -18.84375q-1.34375 0 -2.34375 0.609375q-1.0 0.609375 -1.84375 1.734375l0 7.515625q0.75 1.0 1.640625 1.421875q0.90625 0.40625 2.0 0.40625q2.171875 0 3.328125 -1.546875q1.171875 -1.546875 1.171875 -4.40625q0 -1.515625 -0.28125 -2.609375q-0.265625 -1.09375 -0.765625 -1.78125q-0.5 -0.703125 -1.25 -1.015625q-0.734375 -0.328125 -1.65625 -0.328125zm16.156677 -2.171875q1.390625 0 2.5625 0.46875q1.1875 0.453125 2.046875 1.34375q0.859375 0.875 1.34375 2.171875q0.484375 1.296875 0.484375 2.953125q0 0.640625 -0.140625 0.859375q-0.140625 0.21875 -0.53125 0.21875l-10.328125 0q0.03125 1.46875 0.390625 2.5625q0.375 1.078125 1.015625 1.8125q0.65625 0.71875 1.546875 1.078125q0.890625 0.359375 1.984375 0.359375q1.03125 0 1.765625 -0.234375q0.75 -0.234375 1.28125 -0.5q0.546875 -0.28125 0.90625 -0.515625q0.359375 -0.25 0.609375 -0.25q0.34375 0 0.53125 0.265625l0.765625 1.0q-0.5 0.609375 -1.21875 1.0625q-0.703125 0.453125 -1.515625 0.75q-0.796875 0.28125 -1.65625 0.421875q-0.859375 0.15625 -1.703125 0.15625q-1.609375 0 -2.96875 -0.546875q-1.34375 -0.546875 -2.34375 -1.59375q-0.984375 -1.046875 -1.53125 -2.59375q-0.546875 -1.546875 -0.546875 -3.5625q0 -1.625 0.484375 -3.03125q0.5 -1.40625 1.4375 -2.4375q0.9375 -1.046875 2.28125 -1.625q1.359375 -0.59375 3.046875 -0.59375zm0.0625 2.0q-1.984375 0 -3.125 1.140625q-1.125 1.140625 -1.40625 3.171875l8.453125 0q0 -0.953125 -0.265625 -1.734375q-0.265625 -0.796875 -0.765625 -1.375q-0.5 -0.578125 -1.234375 -0.890625q-0.734375 -0.3125 -1.65625 -0.3125zm9.845154 13.765625l0 -15.53125l1.5625 0q0.453125 0 0.609375 0.171875q0.171875 0.171875 0.234375 0.578125l0.1875 2.421875q0.796875 -1.625 1.96875 -2.53125q1.171875 -0.90625 2.75 -0.90625q0.640625 0 1.15625 0.140625q0.53125 0.140625 0.984375 0.40625l-0.359375 2.03125q-0.109375 0.390625 -0.46875 0.390625q-0.21875 0 -0.671875 -0.140625q-0.4375 -0.15625 -1.234375 -0.15625q-1.421875 0 -2.390625 0.828125q-0.953125 0.828125 -1.59375 2.40625l0 9.890625l-2.734375 0z" fill-rule="nonzero"/></g></svg>