<svg version="1.1" viewBox="0.0 0.0 960.0 192.0" fill="none" stroke="none" stroke-linecap="square" stroke-miterlimit="10" xmlns:xlink="http://www.w3.org/1999/xlink" xmlns="http://www.w3.org/2000/svg"><clipPath id="p.0"><path d="m0 0l960.0 0l0 192.0l-960.0 0l0 -192.0z" clip-rule="nonzero"/></clipPath><g clip-path="url(#p.0)"><path fill="#2c2c30" d="m0 0l960.0 0l0 192.0l-960.0 0z" fill-rule="evenodd"/><path fill="#000000" fill-opacity="0.0" d="m36.66142 3.8040247l886.6771 0l0 71.62205l-886.6771 0z" fill-rule="evenodd"/><path fill="#ffffff" d="m278.61823 76.699646l-7.203125 7.75l0 19.234375l-13.859375 0l0 -67.296875l13.859375 0l0 30.5l6.09375 -8.359375l17.15625 -22.140625l17.046875 0l-23.890625 29.90625l24.59375 37.390625l-16.5 0l-17.296875 -26.984375zm67.11578 26.984375q-0.921875 -1.796875 -1.34375 -4.484375q-4.84375 5.40625 -12.609375 5.40625q-7.359375 0 -12.1875 -4.25q-4.828125 -4.25 -4.828125 -10.71875q0 -7.953125 5.890625 -12.203125q5.890625 -4.25 17.03125 -4.296875l6.15625 0l0 -2.875q0 -3.453125 -1.78125 -5.53125q-1.78125 -2.09375 -5.625 -2.09375q-3.359375 0 -5.28125 1.625q-1.921875 1.609375 -1.921875 4.4375l-13.359375 0q0 -4.34375 2.671875 -8.046875q2.6875 -3.703125 7.578125 -5.796875q4.90625 -2.109375 11.015625 -2.109375q9.234375 0 14.671875 4.65625q5.4375 4.640625 5.4375 13.046875l0 21.671875q0.046875 7.125 1.984375 10.78125l0 0.78125l-13.5 0zm-11.046875 -9.296875q2.953125 0 5.453125 -1.3125q2.5 -1.3125 3.703125 -3.53125l0 -8.59375l-5.0 0q-10.03125 0 -10.671875 6.921875l-0.046875 0.796875q0 2.484375 1.75 4.109375q1.765625 1.609375 4.8125 1.609375zm60.920197 -28.1875q-2.734375 -0.375 -4.8125 -0.375q-7.578125 0 -9.9375 5.140625l0 32.71875l-13.359375 0l0 -50.015625l12.625 0l0.375 5.96875q4.015625 -6.890625 11.125 -6.890625q2.21875 0 4.171875 0.609375l-0.1875 12.84375zm20.525513 37.484375l-13.40625 0l0 -71.0l13.40625 0l0 71.0zm70.34033 -17.65625q0 -3.921875 -2.78125 -6.03125q-2.765625 -2.109375 -9.984375 -4.4375q-7.203125 -2.328125 -11.40625 -4.59375q-11.46875 -6.203125 -11.46875 -16.6875q0 -5.453125 3.078125 -9.71875q3.078125 -4.28125 8.828125 -6.6875q5.75 -2.40625 12.921875 -2.40625q7.203125 0 12.84375 2.609375q5.640625 2.609375 8.75 7.375q3.125 4.765625 3.125 10.8125l-13.859375 0q0 -4.625 -2.921875 -7.1875q-2.90625 -2.5625 -8.171875 -2.5625q-5.09375 0 -7.90625 2.15625q-2.8125 2.140625 -2.8125 5.65625q0 3.28125 3.296875 5.5q3.3125 2.21875 9.734375 4.15625q11.828125 3.5625 17.234375 8.828125q5.40625 5.265625 5.40625 13.125q0 8.734375 -6.609375 13.703125q-6.609375 4.96875 -17.796875 4.96875q-7.765625 0 -14.140625 -2.84375q-6.375 -2.84375 -9.734375 -7.78125q-3.34375 -4.953125 -3.34375 -11.46875l13.90625 0q0 11.140625 13.3125 11.140625q4.953125 0 7.71875 -2.0q2.78125 -2.015625 2.78125 -5.625zm45.42398 18.578125q-11.0 0 -17.90625 -6.75q-6.9062805 -6.75 -6.9062805 -17.96875l0 -1.296875q0 -7.53125 2.90625 -13.46875q2.9219055 -5.953125 8.2500305 -9.15625q5.34375 -3.21875 12.1875 -3.21875q10.25 0 16.140625 6.484375q5.90625 6.46875 5.90625 18.34375l0 5.453125l-31.84375 0q0.640625 4.890625 3.890625 7.859375q3.265625 2.953125 8.265625 2.953125q7.71875 0 12.0625 -5.59375l6.5625 7.34375q-3.015625 4.25 -8.140625 6.640625q-5.125 2.375 -11.375 2.375zm-1.515625 -41.046875q-3.984375 0 -6.453125 2.6875q-2.46875 2.6875 -3.15625 7.671875l18.578125 0l0 -1.0625q-0.09375 -4.4375 -2.40625 -6.859375q-2.3125 -2.4375 -6.5625 -2.4375zm50.46118 30.28125q3.703125 0 6.015625 -2.03125q2.3125 -2.03125 2.40625 -5.40625l12.515625 0q-0.046875 5.078125 -2.78125 9.3125q-2.71875 4.21875 -7.453125 6.5625q-4.734375 2.328125 -10.46875 2.328125q-10.71875 0 -16.921875 -6.8125q-6.1875 -6.8125 -6.1875 -18.84375l0 -0.875q0 -11.546875 6.140625 -18.4375q6.15625 -6.890625 16.875 -6.890625q9.390625 0 15.046875 5.34375q5.671875 5.34375 5.75 14.21875l-12.515625 0q-0.09375 -3.890625 -2.40625 -6.3125q-2.3125 -2.4375 -6.09375 -2.4375q-4.671875 0 -7.0625 3.40625q-2.375 3.390625 -2.375 11.015625l0 1.390625q0 7.71875 2.359375 11.09375q2.359375 3.375 7.15625 3.375zm51.580444 10.765625q-11.0 0 -17.90625 -6.75q-6.90625 -6.75 -6.90625 -17.96875l0 -1.296875q0 -7.53125 2.90625 -13.46875q2.921875 -5.953125 8.25 -9.15625q5.34375 -3.21875 12.1875 -3.21875q10.25 0 16.140625 6.484375q5.90625 6.46875 5.90625 18.34375l0 5.453125l-31.84375 0q0.640625 4.890625 3.890625 7.859375q3.265625 2.953125 8.265625 2.953125q7.71875 0 12.0625 -5.59375l6.5625 7.34375q-3.015625 4.25 -8.140625 6.640625q-5.125 2.375 -11.375 2.375zm-1.515625 -41.046875q-3.984375 0 -6.453125 2.6875q-2.46875 2.6875 -3.15625 7.671875l18.578125 0l0 -1.0625q-0.09375 -4.4375 -2.40625 -6.859375q-2.3125 -2.4375 -6.5625 -2.4375zm41.96118 -9.890625l0.421875 5.78125q5.359375 -6.703125 14.375 -6.703125q7.953125 0 11.828125 4.671875q3.875 4.671875 3.96875 13.953125l0 32.3125l-13.34375 0l0 -31.984375q0 -4.25 -1.859375 -6.171875q-1.84375 -1.921875 -6.140625 -1.921875q-5.640625 0 -8.46875 4.8125l0 35.265625l-13.34375 0l0 -50.015625l12.5625 0z" fill-rule="nonzero"/><path fill="#000000" fill-opacity="0.0" d="m192.59842 122.27122l574.8031 0l0 32.09449l-574.8031 0z" fill-rule="evenodd"/><path fill="#659dbd" d="m323.79227 138.74246l0 2.421875l-10.546875 0l0 7.6875l9.015625 0l0 2.421875l-9.015625 0l0 9.4375l-2.984375 0l0 -21.96875l13.53125 0zm4.822113 6.4375l0 9.90625q0 1.765625 0.8125 2.734375q0.8125 0.953125 2.453125 0.953125q1.203125 0 2.25 -0.5625q1.0625 -0.5625 1.953125 -1.578125l0 -11.453125l2.734375 0l0 15.53125l-1.625 0q-0.59375 0 -0.734375 -0.5625l-0.21875 -1.671875q-1.015625 1.109375 -2.28125 1.796875q-1.25 0.6875 -2.875 0.6875q-1.265625 0 -2.25 -0.421875q-0.96875 -0.421875 -1.625 -1.1875q-0.65625 -0.765625 -0.984375 -1.859375q-0.328125 -1.09375 -0.328125 -2.40625l0 -9.90625l2.71875 0zm17.716797 -7.046875l0 22.578125l-2.71875 0l0 -22.578125l2.71875 0zm7.8480225 0l0 22.578125l-2.71875 0l0 -22.578125l2.71875 0zm22.42096 4.046875q-0.140625 0.234375 -0.296875 0.34375q-0.15625 0.109375 -0.390625 0.109375q-0.265625 0 -0.609375 -0.25q-0.34375 -0.265625 -0.875 -0.578125q-0.53125 -0.3125 -1.28125 -0.578125q-0.734375 -0.265625 -1.796875 -0.265625q-1.0 0 -1.765625 0.28125q-0.765625 0.265625 -1.28125 0.734375q-0.5 0.453125 -0.765625 1.078125q-0.265625 0.609375 -0.265625 1.328125q0 0.921875 0.453125 1.53125q0.453125 0.609375 1.1875 1.046875q0.75 0.421875 1.6875 0.734375q0.953125 0.3125 1.9375 0.65625q1.0 0.328125 1.9375 0.75q0.9375 0.421875 1.671875 1.0625q0.75 0.640625 1.203125 1.578125q0.453125 0.9375 0.453125 2.296875q0 1.4375 -0.5 2.703125q-0.484375 1.265625 -1.421875 2.203125q-0.9375 0.9375 -2.3125 1.484375q-1.375 0.53125 -3.125 0.53125q-2.125 0 -3.890625 -0.765625q-1.75 -0.78125 -2.984375 -2.109375l0.859375 -1.40625q0.125 -0.171875 0.296875 -0.28125q0.171875 -0.125 0.390625 -0.125q0.328125 0 0.734375 0.359375q0.421875 0.34375 1.03125 0.765625q0.625 0.40625 1.5 0.75q0.890625 0.34375 2.15625 0.34375q1.0625 0 1.890625 -0.296875q0.828125 -0.296875 1.390625 -0.8125q0.578125 -0.53125 0.890625 -1.265625q0.3125 -0.734375 0.3125 -1.640625q0 -1.0 -0.453125 -1.625q-0.453125 -0.640625 -1.1875 -1.0625q-0.734375 -0.4375 -1.6875 -0.734375q-0.9375 -0.3125 -1.9375 -0.625q-0.984375 -0.3125 -1.921875 -0.71875q-0.9375 -0.421875 -1.671875 -1.078125q-0.734375 -0.65625 -1.1875 -1.640625q-0.453125 -1.0 -0.453125 -2.453125q0 -1.171875 0.453125 -2.25q0.453125 -1.09375 1.296875 -1.9375q0.859375 -0.84375 2.125 -1.34375q1.265625 -0.5 2.90625 -0.5q1.84375 0 3.359375 0.578125q1.515625 0.578125 2.65625 1.6875l-0.71875 1.40625zm9.263489 18.78125q-1.828125 0 -2.828125 -1.03125q-0.984375 -1.03125 -0.984375 -2.953125l0 -9.515625l-1.875 0q-0.234375 0 -0.40625 -0.140625q-0.171875 -0.140625 -0.171875 -0.453125l0 -1.078125l2.546875 -0.328125l0.625 -4.796875q0.03125 -0.234375 0.203125 -0.375q0.171875 -0.15625 0.421875 -0.15625l1.390625 0l0 5.359375l4.4375 0l0 1.96875l-4.4375 0l0 9.328125q0 0.984375 0.46875 1.453125q0.484375 0.46875 1.234375 0.46875q0.421875 0 0.734375 -0.109375q0.3125 -0.109375 0.546875 -0.25q0.234375 -0.140625 0.390625 -0.25q0.15625 -0.125 0.28125 -0.125q0.21875 0 0.390625 0.265625l0.796875 1.296875q-0.703125 0.671875 -1.703125 1.046875q-1.0 0.375 -2.0625 0.375zm18.13794 -0.25l-1.203125 0q-0.40625 0 -0.65625 -0.125q-0.234375 -0.125 -0.3125 -0.515625l-0.3125 -1.4375q-0.609375 0.546875 -1.203125 0.984375q-0.578125 0.4375 -1.21875 0.734375q-0.640625 0.296875 -1.375 0.453125q-0.71875 0.15625 -1.609375 0.15625q-0.90625 0 -1.703125 -0.25q-0.78125 -0.265625 -1.375 -0.765625q-0.578125 -0.5 -0.921875 -1.28125q-0.34375 -0.78125 -0.34375 -1.828125q0 -0.921875 0.5 -1.765625q0.515625 -0.859375 1.640625 -1.515625q1.125 -0.65625 2.953125 -1.078125q1.828125 -0.421875 4.453125 -0.484375l0 -1.21875q0 -1.796875 -0.78125 -2.71875q-0.765625 -0.9375 -2.28125 -0.9375q-1.0 0 -1.6875 0.25q-0.671875 0.25 -1.171875 0.5625q-0.5 0.3125 -0.859375 0.578125q-0.359375 0.25 -0.703125 0.25q-0.28125 0 -0.484375 -0.140625q-0.203125 -0.15625 -0.328125 -0.375l-0.5 -0.859375q1.296875 -1.25 2.78125 -1.859375q1.484375 -0.609375 3.296875 -0.609375q1.296875 0 2.3125 0.4375q1.015625 0.421875 1.703125 1.1875q0.6875 0.765625 1.03125 1.859375q0.359375 1.078125 0.359375 2.375l0 9.9375zm-7.078125 -1.671875q0.71875 0 1.3125 -0.140625q0.59375 -0.15625 1.125 -0.421875q0.53125 -0.265625 1.015625 -0.640625q0.484375 -0.390625 0.9375 -0.875l0 -3.234375q-1.875 0.0625 -3.203125 0.296875q-1.3125 0.234375 -2.140625 0.625q-0.828125 0.375 -1.203125 0.90625q-0.375 0.515625 -0.375 1.15625q0 0.609375 0.203125 1.0625q0.203125 0.4375 0.53125 0.71875q0.34375 0.28125 0.796875 0.421875q0.46875 0.125 1.0 0.125zm21.80838 -11.09375q-0.125 0.171875 -0.25 0.265625q-0.109375 0.078125 -0.34375 0.078125q-0.234375 0 -0.5 -0.1875q-0.265625 -0.1875 -0.6875 -0.421875q-0.40625 -0.234375 -1.0 -0.421875q-0.59375 -0.1875 -1.453125 -0.1875q-1.125 0 -2.0 0.40625q-0.875 0.40625 -1.46875 1.171875q-0.59375 0.765625 -0.890625 1.859375q-0.296875 1.078125 -0.296875 2.4375q0 1.40625 0.3125 2.5q0.328125 1.09375 0.90625 1.84375q0.59375 0.734375 1.421875 1.125q0.84375 0.390625 1.890625 0.390625q0.984375 0 1.625 -0.234375q0.65625 -0.234375 1.078125 -0.515625q0.4375 -0.296875 0.703125 -0.53125q0.28125 -0.25 0.5625 -0.25q0.34375 0 0.515625 0.265625l0.765625 1.0q-1.015625 1.234375 -2.53125 1.8125q-1.515625 0.578125 -3.203125 0.578125q-1.453125 0 -2.703125 -0.53125q-1.25 -0.546875 -2.171875 -1.5625q-0.921875 -1.015625 -1.453125 -2.5q-0.515625 -1.5 -0.515625 -3.390625q0 -1.734375 0.46875 -3.203125q0.484375 -1.484375 1.40625 -2.546875q0.9375 -1.0625 2.296875 -1.65625q1.375 -0.59375 3.140625 -0.59375q1.625 0 2.875 0.53125q1.25 0.515625 2.21875 1.484375l-0.71875 0.984375zm6.5665283 -9.8125l0 13.296875l0.703125 0q0.296875 0 0.5 -0.078125q0.203125 -0.09375 0.453125 -0.359375l4.90625 -5.25q0.21875 -0.25 0.453125 -0.40625q0.234375 -0.15625 0.609375 -0.15625l2.484375 0l-5.71875 6.09375q-0.203125 0.25 -0.421875 0.453125q-0.203125 0.203125 -0.46875 0.359375q0.28125 0.171875 0.5 0.421875q0.21875 0.234375 0.421875 0.53125l6.078125 7.671875l-2.453125 0q-0.34375 0 -0.578125 -0.125q-0.234375 -0.140625 -0.453125 -0.40625l-5.109375 -6.359375q-0.21875 -0.328125 -0.453125 -0.421875q-0.234375 -0.109375 -0.6875 -0.109375l-0.765625 0l0 7.421875l-2.75 0l0 -22.578125l2.75 0zm17.121216 0.609375l2.46875 0q0.390625 0 0.65625 0.203125q0.265625 0.203125 0.34375 0.5l4.546875 15.265625q0.125 0.421875 0.21875 0.90625q0.09375 0.46875 0.1875 0.984375q0.109375 -0.515625 0.21875 -1.0q0.109375 -0.484375 0.25 -0.890625l5.15625 -15.265625q0.09375 -0.25 0.359375 -0.46875q0.28125 -0.234375 0.65625 -0.234375l0.859375 0q0.40625 0 0.65625 0.203125q0.25 0.203125 0.359375 0.5l5.125 15.265625q0.28125 0.796875 0.5 1.828125q0.09375 -0.5 0.15625 -0.953125q0.078125 -0.46875 0.203125 -0.875l4.5625 -15.265625q0.078125 -0.265625 0.34375 -0.484375q0.265625 -0.21875 0.640625 -0.21875l2.328125 0l-6.859375 21.96875l-2.671875 0l-5.5625 -16.75q-0.171875 -0.484375 -0.296875 -1.109375q-0.078125 0.3125 -0.15625 0.59375q-0.0625 0.28125 -0.140625 0.515625l-5.59375 16.75l-2.671875 0l-6.84375 -21.96875zm38.920013 6.203125q1.390625 0 2.5625 0.46875q1.1875 0.453125 2.046875 1.34375q0.859375 0.875 1.34375 2.171875q0.484375 1.296875 0.484375 2.953125q0 0.640625 -0.140625 0.859375q-0.140625 0.21875 -0.53125 0.21875l-10.328125 0q0.03125 1.46875 0.390625 2.5625q0.375 1.078125 1.015625 1.8125q0.65625 0.71875 1.546875 1.078125q0.890625 0.359375 1.984375 0.359375q1.03125 0 1.765625 -0.234375q0.75 -0.234375 1.28125 -0.5q0.546875 -0.28125 0.90625 -0.515625q0.359375 -0.25 0.609375 -0.25q0.34375 0 0.53125 0.265625l0.765625 1.0q-0.5 0.609375 -1.21875 1.0625q-0.703125 0.453125 -1.515625 0.75q-0.796875 0.28125 -1.65625 0.421875q-0.859375 0.15625 -1.703125 0.15625q-1.609375 0 -2.96875 -0.546875q-1.34375 -0.546875 -2.34375 -1.59375q-0.984375 -1.046875 -1.53125 -2.59375q-0.546875 -1.546875 -0.546875 -3.5625q0 -1.625 0.484375 -3.03125q0.5 -1.40625 1.4375 -2.4375q0.9375 -1.046875 2.28125 -1.625q1.359375 -0.59375 3.046875 -0.59375zm0.0625 2.0q-1.984375 0 -3.125 1.140625q-1.125 1.140625 -1.40625 3.171875l8.453125 0q0 -0.953125 -0.265625 -1.734375q-0.265625 -0.796875 -0.765625 -1.375q-0.5 -0.578125 -1.234375 -0.890625q-0.734375 -0.3125 -1.65625 -0.3125zm9.938934 13.765625l0 -22.578125l2.75 0l0 9.28125q0.96875 -1.109375 2.203125 -1.78125q1.25 -0.6875 2.859375 -0.6875q1.359375 0 2.4375 0.5q1.09375 0.5 1.859375 1.515625q0.765625 1.0 1.171875 2.484375q0.421875 1.46875 0.421875 3.40625q0 1.71875 -0.46875 3.203125q-0.453125 1.46875 -1.328125 2.546875q-0.859375 1.078125 -2.109375 1.703125q-1.234375 0.625 -2.8125 0.625q-1.5 0 -2.546875 -0.578125q-1.046875 -0.59375 -1.828125 -1.640625l-0.140625 1.421875q-0.125 0.578125 -0.703125 0.578125l-1.765625 0zm6.9375 -13.59375q-1.34375 0 -2.34375 0.609375q-1.0 0.609375 -1.84375 1.734375l0 7.515625q0.734375 1.0 1.625 1.421875q0.90625 0.40625 2.0 0.40625q2.1875 0 3.34375 -1.546875q1.171875 -1.546875 1.171875 -4.40625q0 -1.515625 -0.28125 -2.609375q-0.265625 -1.09375 -0.765625 -1.78125q-0.5 -0.703125 -1.25 -1.015625q-0.734375 -0.328125 -1.65625 -0.328125zm35.49106 2.625q0 2.46875 -0.78125 4.5q-0.78125 2.015625 -2.203125 3.453125q-1.421875 1.4375 -3.421875 2.234375q-1.984375 0.78125 -4.40625 0.78125l-8.21875 0l0 -21.96875l8.21875 0q2.421875 0 4.40625 0.796875q2.0 0.78125 3.421875 2.234375q1.421875 1.453125 2.203125 3.484375q0.78125 2.015625 0.78125 4.484375zm-3.046875 0q0 -2.03125 -0.5625 -3.625q-0.546875 -1.59375 -1.5625 -2.6875q-1.0 -1.109375 -2.453125 -1.6875q-1.4375 -0.59375 -3.1875 -0.59375l-5.234375 0l0 17.15625l5.234375 0q1.75 0 3.1875 -0.578125q1.453125 -0.59375 2.453125 -1.6875q1.015625 -1.09375 1.5625 -2.6875q0.5625 -1.59375 0.5625 -3.609375zm12.8186035 -4.796875q1.390625 0 2.5625 0.46875q1.1875 0.453125 2.046875 1.34375q0.859375 0.875 1.34375 2.171875q0.484375 1.296875 0.484375 2.953125q0 0.640625 -0.140625 0.859375q-0.140625 0.21875 -0.53125 0.21875l-10.328125 0q0.03125 1.46875 0.390625 2.5625q0.375 1.078125 1.015625 1.8125q0.65625 0.71875 1.546875 1.078125q0.890625 0.359375 1.984375 0.359375q1.03125 0 1.765625 -0.234375q0.75 -0.234375 1.28125 -0.5q0.546875 -0.28125 0.90625 -0.515625q0.359375 -0.25 0.609375 -0.25q0.34375 0 0.53125 0.265625l0.765625 1.0q-0.5 0.609375 -1.21875 1.0625q-0.703125 0.453125 -1.515625 0.75q-0.796875 0.28125 -1.65625 0.421875q-0.859375 0.15625 -1.703125 0.15625q-1.609375 0 -2.96875 -0.546875q-1.34375 -0.546875 -2.34375 -1.59375q-0.984375 -1.046875 -1.53125 -2.59375q-0.546875 -1.546875 -0.546875 -3.5625q0 -1.625 0.484375 -3.03125q0.5 -1.40625 1.4375 -2.4375q0.9375 -1.046875 2.28125 -1.625q1.359375 -0.59375 3.046875 -0.59375zm0.0625 2.0q-1.984375 0 -3.125 1.140625q-1.125 1.140625 -1.40625 3.171875l8.453125 0q0 -0.953125 -0.265625 -1.734375q-0.265625 -0.796875 -0.765625 -1.375q-0.5 -0.578125 -1.234375 -0.890625q-0.734375 -0.3125 -1.65625 -0.3125zm7.493408 -1.765625l2.234375 0q0.3125 0 0.53125 0.171875q0.21875 0.171875 0.3125 0.40625l3.9375 9.984375q0.21875 0.546875 0.328125 1.109375q0.125 0.546875 0.234375 1.078125q0.125 -0.53125 0.265625 -1.078125q0.140625 -0.5625 0.34375 -1.109375l4.0 -9.984375q0.078125 -0.25 0.28125 -0.40625q0.21875 -0.171875 0.53125 -0.171875l2.125 0l-6.328125 15.53125l-2.46875 0l-6.328125 -15.53125zm23.406738 -0.234375q1.390625 0 2.5625 0.46875q1.1875 0.453125 2.046875 1.34375q0.859375 0.875 1.34375 2.171875q0.484375 1.296875 0.484375 2.953125q0 0.640625 -0.140625 0.859375q-0.140625 0.21875 -0.53125 0.21875l-10.328125 0q0.03125 1.46875 0.390625 2.5625q0.375 1.078125 1.015625 1.8125q0.65625 0.71875 1.546875 1.078125q0.890625 0.359375 1.984375 0.359375q1.03125 0 1.765625 -0.234375q0.75 -0.234375 1.28125 -0.5q0.546875 -0.28125 0.90625 -0.515625q0.359375 -0.25 0.609375 -0.25q0.34375 0 0.53125 0.265625l0.765625 1.0q-0.5 0.609375 -1.21875 1.0625q-0.703125 0.453125 -1.515625 0.75q-0.796875 0.28125 -1.65625 0.421875q-0.859375 0.15625 -1.703125 0.15625q-1.609375 0 -2.96875 -0.546875q-1.34375 -0.546875 -2.34375 -1.59375q-0.984375 -1.046875 -1.53125 -2.59375q-0.546875 -1.546875 -0.546875 -3.5625q0 -1.625 0.484375 -3.03125q0.5 -1.40625 1.4375 -2.4375q0.9375 -1.046875 2.28125 -1.625q1.359375 -0.59375 3.046875 -0.59375zm0.0625 2.0q-1.984375 0 -3.125 1.140625q-1.125 1.140625 -1.40625 3.171875l8.453125 0q0 -0.953125 -0.265625 -1.734375q-0.265625 -0.796875 -0.765625 -1.375q-0.5 -0.578125 -1.234375 -0.890625q-0.734375 -0.3125 -1.65625 -0.3125zm12.876404 -8.8125l0 22.578125l-2.71875 0l0 -22.578125l2.71875 0zm11.098022 6.8125q1.703125 0 3.078125 0.5625q1.375 0.5625 2.328125 1.609375q0.96875 1.046875 1.46875 2.53125q0.515625 1.46875 0.515625 3.296875q0 1.828125 -0.515625 3.3125q-0.5 1.46875 -1.46875 2.515625q-0.953125 1.03125 -2.328125 1.59375q-1.375 0.5625 -3.078125 0.5625q-1.6875 0 -3.0625 -0.5625q-1.375 -0.5625 -2.34375 -1.59375q-0.96875 -1.046875 -1.484375 -2.515625q-0.515625 -1.484375 -0.515625 -3.3125q0 -1.828125 0.515625 -3.296875q0.515625 -1.484375 1.484375 -2.53125q0.96875 -1.046875 2.34375 -1.609375q1.375 -0.5625 3.0625 -0.5625zm0 13.84375q2.3125 0 3.4375 -1.53125q1.140625 -1.546875 1.140625 -4.296875q0 -2.78125 -1.140625 -4.328125q-1.125 -1.546875 -3.4375 -1.546875q-1.15625 0 -2.015625 0.40625q-0.859375 0.390625 -1.4375 1.140625q-0.578125 0.75 -0.859375 1.84375q-0.28125 1.09375 -0.28125 2.484375q0 1.375 0.28125 2.46875q0.28125 1.078125 0.859375 1.828125q0.578125 0.734375 1.4375 1.140625q0.859375 0.390625 2.015625 0.390625zm10.763672 7.171875l0 -20.78125l1.625 0q0.578125 0 0.734375 0.578125l0.234375 1.828125q1.0 -1.203125 2.28125 -1.9375q1.28125 -0.734375 2.953125 -0.734375q1.328125 0 2.40625 0.515625q1.09375 0.5 1.859375 1.515625q0.765625 1.0 1.171875 2.484375q0.421875 1.484375 0.421875 3.421875q0 1.71875 -0.46875 3.203125q-0.453125 1.46875 -1.3125 2.546875q-0.84375 1.078125 -2.09375 1.703125q-1.25 0.625 -2.8125 0.625q-1.453125 0 -2.46875 -0.46875q-1.015625 -0.484375 -1.796875 -1.359375l0 6.859375l-2.734375 0zm6.921875 -18.84375q-1.34375 0 -2.34375 0.609375q-1.0 0.609375 -1.84375 1.734375l0 7.515625q0.75 1.0 1.640625 1.421875q0.90625 0.40625 2.0 0.40625q2.171875 0 3.328125 -1.546875q1.171875 -1.546875 1.171875 -4.40625q0 -1.515625 -0.28125 -2.609375q-0.265625 -1.09375 -0.765625 -1.78125q-0.5 -0.703125 -1.25 -1.015625q-0.734375 -0.328125 -1.65625 -0.328125zm16.156677 -2.171875q1.390625 0 2.5625 0.46875q1.1875 0.453125 2.046875 1.34375q0.859375 0.875 1.34375 2.171875q0.484375 1.296875 0.484375 2.953125q0 0.640625 -0.140625 0.859375q-0.140625 0.21875 -0.53125 0.21875l-10.328125 0q0.03125 1.46875 0.390625 2.5625q0.375 1.078125 1.015625 1.8125q0.65625 0.71875 1.546875 1.078125q0.890625 0.359375 1.984375 0.359375q1.03125 0 1.765625 -0.234375q0.75 -0.234375 1.28125 -0.5q0.546875 -0.28125 0.90625 -0.515625q0.359375 -0.25 0.609375 -0.25q0.34375 0 0.53125 0.265625l0.765625 1.0q-0.5 0.609375 -1.21875 1.0625q-0.703125 0.453125 -1.515625 0.75q-0.796875 0.28125 -1.65625 0.421875q-0.859375 0.15625 -1.703125 0.15625q-1.609375 0 -2.96875 -0.546875q-1.34375 -0.546875 -2.34375 -1.59375q-0.984375 -1.046875 -1.53125 -2.59375q-0.546875 -1.546875 -0.546875 -3.5625q0 -1.625 0.484375 -3.03125q0.5 -1.40625 1.4375 -2.4375q0.9375 -1.046875 2.28125 -1.625q1.359375 -0.59375 3.046875 -0.59375zm0.0625 2.0q-1.984375 0 -3.125 1.140625q-1.125 1.140625 -1.40625 3.171875l8.453125 0q0 -0.953125 -0.265625 -1.734375q-0.265625 -0.796875 -0.765625 -1.375q-0.5 -0.578125 -1.234375 -0.890625q-0.734375 -0.3125 -1.65625 -0.3125zm9.845154 13.765625l0 -15.53125l1.5625 0q0.453125 0 0.609375 0.171875q0.171875 0.171875 0.234375 0.578125l0.1875 2.421875q0.796875 -1.625 1.96875 -2.53125q1.171875 -0.90625 2.75 -0.90625q0.640625 0 1.15625 0.140625q0.53125 0.140625 0.984375 0.40625l-0.359375 2.03125q-0.109375 0.390625 -0.46875 0.390625q-0.21875 0 -0.671875 -0.140625q-0.4375 -0.15625 -1.234375 -0.15625q-1.421875 0 -2.390625 0.828125q-0.953125 0.828125 -1.59375 2.40625l0 9.890625l-2.734375 0z" fill-rule="nonzero"/></g></svg>